<svg width="56" height="57" viewBox="0 0 56 57" fill="none" xmlns="http://www.w3.org/2000/svg">
<rect y="0.823242" width="56" height="56" rx="28" fill="#E44436"/>
<path d="M28 20.8232L38.0625 38.1357H17.9375L28 20.8232ZM15.625 36.8232C14.625 38.5732 15.9375 40.8232 17.9375 40.8232H38.0625C40.0625 40.8232 41.375 38.5732 40.375 36.8232L30.3125 19.4482C29.25 17.6982 26.75 17.6982 25.6875 19.4482L15.625 36.8232ZM26.6875 27.5107V30.1357C26.6875 30.8857 27.25 31.5107 28 31.5107C28.75 31.5107 29.3125 30.8857 29.3125 30.1357V27.5107C29.3125 26.7607 28.75 26.1357 28 26.1357C27.25 26.1357 26.6875 26.7607 26.6875 27.5107ZM26.6875 34.1357H29.3125V36.8232H26.6875V34.1357Z" fill="white"/>
</svg>
