<svg width="57" height="57" viewBox="0 0 57 57" fill="none" xmlns="http://www.w3.org/2000/svg">
<rect x="0.5" y="0.823242" width="56" height="56" rx="28" fill="#E44436"/>
<path fill-rule="evenodd" clip-rule="evenodd" d="M12.5 13.9267C12.5 13.3173 12.9776 12.8232 13.5667 12.8232H16.7667C17.2606 12.8232 17.6899 13.174 17.8043 13.6711L18.6251 17.237H43.4333C43.7584 17.237 44.0657 17.3904 44.2681 17.6535C44.4704 17.9167 44.5458 18.2609 44.4727 18.5886L41.2727 32.9334C41.161 33.4341 40.73 33.7888 40.2333 33.7888H22.4346L22.9425 35.9957H40.2333C40.8224 35.9957 41.3 36.4897 41.3 37.0991C41.3 37.7085 40.8224 38.2026 40.2333 38.2026H22.1C21.6061 38.2026 21.1767 37.8518 21.0623 37.3547L20.1182 33.2524C20.062 33.1554 20.0196 33.0483 19.994 32.9334L18.3948 25.7648L15.9241 15.0301H13.5667C12.9776 15.0301 12.5 14.5361 12.5 13.9267ZM21.9266 31.5819H39.3848L42.0925 19.4439H19.1742L20.4718 25.261L21.9266 31.5819Z" fill="white"/>
<path fill-rule="evenodd" clip-rule="evenodd" d="M38.1004 40.4094C37.5113 40.4094 37.0337 40.9035 37.0337 41.5129C37.0337 42.1223 37.5113 42.6163 38.1004 42.6163C38.6895 42.6163 39.1671 42.1223 39.1671 41.5129C39.1671 40.9035 38.6895 40.4094 38.1004 40.4094ZM34.9004 41.5129C34.9004 39.6846 36.3331 38.2025 38.1004 38.2025C39.8677 38.2025 41.3004 39.6846 41.3004 41.5129C41.3004 43.3411 39.8677 44.8232 38.1004 44.8232C36.3331 44.8232 34.9004 43.3411 34.9004 41.5129Z" fill="white"/>
<path fill-rule="evenodd" clip-rule="evenodd" d="M24.2332 40.4094C23.6441 40.4094 23.1665 40.9035 23.1665 41.5129C23.1665 42.1223 23.6441 42.6163 24.2332 42.6163C24.8223 42.6163 25.2999 42.1223 25.2999 41.5129C25.2999 40.9035 24.8223 40.4094 24.2332 40.4094ZM21.0332 41.5129C21.0332 39.6846 22.4659 38.2025 24.2332 38.2025C26.0005 38.2025 27.4332 39.6846 27.4332 41.5129C27.4332 43.3411 26.0005 44.8232 24.2332 44.8232C22.4659 44.8232 21.0332 43.3411 21.0332 41.5129Z" fill="white"/>
</svg>
