<svg width="57" height="57" viewBox="0 0 57 57" fill="none" xmlns="http://www.w3.org/2000/svg">
<rect x="0.5" y="0.823242" width="56" height="56" rx="28" fill="#E44436"/>
<path d="M28.5003 18.6857L27.0662 17.1135C23.7001 13.4228 17.5279 14.6964 15.2999 19.3364C14.2538 21.5188 14.0178 24.6697 15.9279 28.691C17.768 32.563 21.5961 37.2009 28.5003 42.2526C35.4045 37.2009 39.2306 32.563 41.0727 28.691C42.9827 24.6676 42.7487 21.5188 41.7007 19.3364C39.4726 14.6964 33.3004 13.4207 29.9343 17.1113L28.5003 18.6857ZM28.5003 44.8232C-2.16666 23.2084 19.058 6.33803 28.1483 15.2617C28.2683 15.3791 28.3863 15.5007 28.5003 15.6265C28.6131 15.5008 28.7306 15.3798 28.8523 15.2639C37.9406 6.33377 59.1672 23.2062 28.5003 44.8232Z" fill="white"/>
</svg>
