<svg width="117" height="117" viewBox="0 0 117 117" fill="none" xmlns="http://www.w3.org/2000/svg">
<circle cx="58.5234" cy="58.6001" r="57.793" fill="#E44436"/>
<g clip-path="url(#clip0)">
<path d="M61.3461 32.882C61.3333 32.1455 61.0317 31.4435 60.5063 30.9271C59.9809 30.4108 59.2738 30.1215 58.5371 30.1215C57.8005 30.1215 57.0933 30.4108 56.5679 30.9271C56.0426 31.4435 55.741 32.1455 55.7282 32.882L55.7282 55.8265L32.7817 55.8245C32.4088 55.818 32.0382 55.8859 31.6917 56.0241C31.3453 56.1624 31.0298 56.3683 30.7637 56.6297C30.4977 56.8912 30.2863 57.2031 30.1421 57.5471C29.9978 57.8911 29.9235 58.2604 29.9235 58.6335C29.9235 59.0065 29.9978 59.3758 30.1421 59.7198C30.2863 60.0638 30.4977 60.3757 30.7637 60.6372C31.0298 60.8987 31.3453 61.1045 31.6917 61.2428C32.0382 61.381 32.4088 61.4489 32.7817 61.4424L55.7282 61.4444L55.7282 84.3888C55.741 85.1254 56.0425 85.8274 56.5679 86.3437C57.0933 86.8601 57.8005 87.1494 58.5371 87.1494C59.2738 87.1494 59.9809 86.8601 60.5063 86.3437C61.0317 85.8274 61.3333 85.1254 61.3461 84.3888L61.3461 61.4444L84.2905 61.4444C85.0271 61.4316 85.7291 61.13 86.2454 60.6046C86.7618 60.0792 87.0511 59.3721 87.0511 58.6354C87.0511 57.8988 86.7618 57.1916 86.2454 56.6662C85.7291 56.1409 85.0271 55.8393 84.2905 55.8265L61.3461 55.8265L61.3481 32.88L61.3461 32.882Z" fill="#F2F2F2" stroke="#F2F2F2" stroke-width="8" stroke-linejoin="round"/>
</g>
<defs>
<clipPath id="clip0">
<rect width="67.4251" height="67.4251" fill="white" transform="translate(24.8105 24.8875)"/>
</clipPath>
</defs>
</svg>
